<svg width="41" height="40" viewBox="0 0 41 40" fill="none" xmlns="http://www.w3.org/2000/svg">
<path d="M4.26664 24.4667C4.38149 24.8875 4.65674 25.2465 5.03331 25.4667L8.21664 27.3167V30.9833C8.21664 31.4253 8.39224 31.8493 8.7048 32.1618C9.01736 32.4744 9.44128 32.65 9.88331 32.65H13.55L15.4 35.8333C15.5454 36.0852 15.7542 36.2947 16.0057 36.4409C16.2571 36.587 16.5425 36.6649 16.8333 36.6666C17.1324 36.6666 17.426 36.586 17.6833 36.4333L20.85 34.6L24.0333 36.4333C24.2225 36.5442 24.4318 36.6166 24.6491 36.6465C24.8664 36.6764 25.0874 36.663 25.2995 36.6073C25.5116 36.5516 25.7107 36.4545 25.8852 36.3217C26.0598 36.1889 26.2064 36.0229 26.3166 35.8333L28.15 32.65H31.8166C32.2587 32.65 32.6826 32.4744 32.9952 32.1618C33.3077 31.8493 33.4833 31.4253 33.4833 30.9833V27.3167L36.6666 25.4667C37.0479 25.2468 37.3267 24.8851 37.4422 24.4604C37.5577 24.0358 37.5006 23.5827 37.2833 23.2L35.4333 20L37.2833 16.8167C37.5006 16.434 37.5577 15.9809 37.4422 15.5562C37.3267 15.1316 37.0479 14.7698 36.6666 14.55L33.4833 12.7167V9.04998C33.4833 8.60796 33.3077 8.18403 32.9952 7.87147C32.6826 7.55891 32.2587 7.38332 31.8166 7.38332H28.15L26.3166 4.19999C26.0926 3.81994 25.727 3.54424 25.3 3.43332C25.0883 3.37643 24.8674 3.36186 24.65 3.39046C24.4327 3.41906 24.2231 3.49026 24.0333 3.59999L20.8333 5.43332L17.6666 3.59999C17.286 3.3813 16.8344 3.32165 16.41 3.43399C15.9855 3.54634 15.6226 3.8216 15.4 4.19999L13.55 7.38332H9.88331C9.44128 7.38332 9.01736 7.55891 8.7048 7.87147C8.39224 8.18403 8.21664 8.60796 8.21664 9.04998V12.7167L5.04997 14.55C4.859 14.6589 4.69144 14.8045 4.55697 14.9784C4.4225 15.1523 4.32376 15.3511 4.26644 15.5633C4.20912 15.7755 4.19435 15.997 4.22299 16.215C4.25163 16.433 4.32311 16.6431 4.43331 16.8333L6.26664 20L4.43331 23.1833C4.32137 23.3753 4.24895 23.5878 4.22033 23.8081C4.19171 24.0285 4.20745 24.2524 4.26664 24.4667ZM9.63331 19.1833L8.14997 16.6667L10.7333 15.1667C10.9821 15.0191 11.1882 14.8094 11.3314 14.5581C11.4746 14.3068 11.5499 14.0226 11.55 13.7333V10.7167H14.5166C14.8103 10.7178 15.0991 10.6414 15.3537 10.495C15.6084 10.3487 15.8198 10.1377 15.9666 9.88332L17.5 7.31665L20.0666 8.79999C20.32 8.94627 20.6074 9.02328 20.9 9.02328C21.1925 9.02328 21.4799 8.94627 21.7333 8.79999L24.3166 7.31665L25.8333 9.88332C25.9801 10.1377 26.1916 10.3487 26.4462 10.495C26.7008 10.6414 26.9896 10.7178 27.2833 10.7167H30.2333V13.6833C30.2351 13.9742 30.3129 14.2595 30.4591 14.511C30.6053 14.7624 30.8147 14.9712 31.0666 15.1167L33.6333 16.6167L32.15 19.1833C32.0037 19.4367 31.9267 19.7241 31.9267 20.0167C31.9267 20.3092 32.0037 20.5966 32.15 20.85L33.6333 23.4167L31.0666 24.9167C30.8147 25.0621 30.6053 25.2709 30.4591 25.5223C30.3129 25.7738 30.2351 26.0591 30.2333 26.35V29.3167H27.1833C26.8925 29.3184 26.6071 29.3962 26.3557 29.5424C26.1042 29.6886 25.8954 29.8981 25.75 30.15L24.2666 32.7166L21.6833 31.2333C21.4299 31.087 21.1425 31.01 20.85 31.01C20.5574 31.01 20.27 31.087 20.0166 31.2333L17.5 32.7166L16.0166 30.15C15.8698 29.8956 15.6584 29.6846 15.4037 29.5383C15.1491 29.3919 14.8603 29.3155 14.5666 29.3167H11.55V26.35C11.5359 26.075 11.454 25.8078 11.3115 25.5722C11.169 25.3366 10.9703 25.14 10.7333 25L8.14997 23.5L9.63331 20.9333C9.79555 20.6703 9.88147 20.3674 9.88147 20.0583C9.88147 19.7493 9.79555 19.4463 9.63331 19.1833Z" fill="#002561"/>
</svg>
