<svg width="41" height="40" viewBox="0 0 41 40" fill="none" xmlns="http://www.w3.org/2000/svg">
<path d="M35.8334 25C35.8343 23.9869 35.7338 22.9763 35.5334 21.9833C35.3375 21.0163 35.0414 20.0723 34.6501 19.1666C34.2789 18.2866 33.8152 17.4485 33.2667 16.6666C32.7303 15.869 32.1162 15.1265 31.4334 14.45C30.7473 13.743 29.9874 13.1116 29.1667 12.5666C28.369 12.015 27.514 11.5512 26.6167 11.1833L25.8334 10.8666V8.33329C25.8334 7.89127 25.6578 7.46734 25.3452 7.15478C25.0327 6.84222 24.6087 6.66663 24.1667 6.66663H17.5001C17.058 6.66663 16.6341 6.84222 16.3215 7.15478C16.009 7.46734 15.8334 7.89127 15.8334 8.33329V10.8666L15.0001 11.1833C14.12 11.5544 13.282 12.0182 12.5001 12.5666C11.6992 13.0988 10.9563 13.7132 10.2834 14.4C9.57641 15.086 8.94502 15.8459 8.40005 16.6666C7.84846 17.4643 7.38466 18.3193 7.01672 19.2166C6.63038 20.1242 6.3345 21.0676 6.13338 22.0333C5.93629 23.0099 5.8358 24.0036 5.83338 25V30H4.16672V33.3333H37.5V30H35.8334V25ZM9.16672 25C9.16842 24.2109 9.24657 23.4239 9.40005 22.65C9.55179 21.9005 9.78079 21.1688 10.0834 20.4666C10.3755 19.7733 10.7327 19.1093 11.1501 18.4833C11.996 17.2371 13.0705 16.1626 14.3167 15.3166C14.8014 14.9976 15.3083 14.7136 15.8334 14.4666V25H19.1667V9.99996H22.5V25H25.8334V14.4666C26.3566 14.7172 26.8632 15.0011 27.35 15.3166C27.9489 15.7416 28.5069 16.2214 29.0167 16.75C29.5445 17.2558 30.0192 17.8143 30.4334 18.4166C30.8683 19.0347 31.2317 19.7 31.5167 20.4C31.8142 21.1041 32.043 21.8352 32.2001 22.5833C32.3803 23.3768 32.4808 24.1864 32.5 25V30H9.16672V25Z" fill="#002561"/>
</svg>
