<svg width="41" height="40" viewBox="0 0 41 40" fill="none" xmlns="http://www.w3.org/2000/svg">
<path fill-rule="evenodd" clip-rule="evenodd" d="M37.7658 8.71249L35.8158 8.25249L30.5458 13.4925L27.5608 10.4525L32.7008 5.05999L32.2508 3.07999C31.1646 2.71661 30.0286 2.52432 28.8833 2.50999C27.634 2.49078 26.394 2.72906 25.2408 3.20999C24.1273 3.71401 23.1208 4.42688 22.2758 5.30999C21.3352 6.20102 20.5902 7.27801 20.0883 8.47249C19.1219 10.8497 19.1219 13.5103 20.0883 15.8875C14.8764 21.015 9.7318 26.2104 4.65581 31.4725C4.13081 32.16 3.88081 33.0175 3.94581 33.88C3.99704 34.8076 4.41423 35.6771 5.10581 36.2975C5.41581 36.635 5.78581 36.915 6.19831 37.1175C6.62331 37.305 7.08081 37.4125 7.54331 37.435C8.33331 37.42 9.09081 37.12 9.67831 36.5925C13.5483 32.95 20.9633 25.4675 25.1758 21.0825C26.3183 21.5675 27.5458 21.8175 28.7858 21.815C30.034 21.814 31.2694 21.5628 32.4188 21.0763C33.5683 20.5898 34.6086 19.8779 35.4783 18.9825C37.2647 17.1606 38.2624 14.709 38.2558 12.1575C38.2847 10.9899 38.1191 9.82569 37.7658 8.71249ZM8.16581 34.82C8.06959 34.9054 7.9536 34.9656 7.82831 34.995C7.70506 35.0163 7.57906 35.0163 7.45581 34.995C7.32659 34.9753 7.2035 34.9266 7.09581 34.8525C6.98025 34.7848 6.88254 34.6906 6.81081 34.5775C6.46081 34.22 6.13331 33.54 6.46081 33.1575C9.88581 29.515 16.9383 22.395 21.3483 18.0425C21.5983 18.3725 21.8733 18.6875 22.1683 18.9825C22.4633 19.29 22.7808 19.575 23.1183 19.835C18.8533 24.21 11.8958 31.245 8.16581 34.82ZM35.9608 12.1575C35.9658 14.07 35.2208 15.9075 33.8808 17.2775C32.5436 18.5892 30.7452 19.324 28.8721 19.324C26.9989 19.324 25.2005 18.5892 23.8633 17.2775C22.8833 16.2547 22.2138 14.9747 21.9328 13.5864C21.6517 12.198 21.7707 10.7584 22.2758 9.43499C22.612 8.53432 23.1336 7.71425 23.8067 7.02781C24.4798 6.34137 25.2894 5.80384 26.1833 5.44999C27.032 5.09476 27.9432 4.91286 28.8633 4.91499H29.4983L24.9558 9.59749V11.3375L29.6933 16.0525H31.3433L35.9608 11.5125V12.1575ZM8.93331 16.72H12.7608L14.5233 18.5125L16.2183 16.8275L14.5558 15.1325V15.025L14.6983 10.9025L14.1483 9.80999L6.99831 5.10499L5.52081 5.26999L3.44331 7.39249L3.27831 8.88999L7.87331 16.185L8.93331 16.72ZM6.57081 7.63999L12.3558 11.45L12.2583 14.2575H9.56831L5.83831 8.35249L6.57081 7.63999ZM24.3333 25.04L26.0183 23.3575L33.7833 31.32C34.4374 32.0074 34.8021 32.9199 34.8021 33.8687C34.8021 34.8176 34.4374 35.7301 33.7833 36.4175C33.2915 36.9224 32.6591 37.2675 31.9684 37.408C31.2777 37.5484 30.5607 37.4777 29.9108 37.205C29.496 37.021 29.124 36.7528 28.8183 36.4175L20.9633 28.41L22.6608 26.715L30.4908 34.7C30.5961 34.8161 30.7271 34.906 30.8733 34.9625C31.1611 35.0794 31.4831 35.0794 31.7708 34.9625C31.917 34.9059 32.048 34.8161 32.1533 34.7C32.2627 34.5916 32.3479 34.4612 32.4033 34.3175C32.4607 34.1708 32.4912 34.015 32.4933 33.8575C32.4908 33.7003 32.4612 33.5446 32.4058 33.3975C32.3504 33.2538 32.2652 33.1234 32.1558 33.015L24.3333 25.04Z" fill="#002561"/>
</svg>
