<svg width="32" height="32" viewBox="0 0 32 32" fill="none" xmlns="http://www.w3.org/2000/svg">
<path d="M8.97144 3.08915L11.1851 2.42172C11.9157 2.2018 12.7014 2.25516 13.3956 2.57185C14.0897 2.88854 14.645 3.44693 14.9577 4.14287L16.5097 7.5943C16.7791 8.19306 16.8542 8.86116 16.7244 9.50478C16.5947 10.1484 16.2666 10.7352 15.7863 11.1829L13.424 13.384C13.1074 13.6846 13.3474 14.856 14.504 16.8606C15.6617 18.8663 16.5566 19.6594 16.9691 19.536L20.064 18.5897C20.6913 18.3978 21.363 18.4071 21.9848 18.6161C22.6066 18.8252 23.1474 19.2236 23.5314 19.7554L25.7371 22.8126C26.1827 23.4299 26.389 24.188 26.3177 24.9459C26.2464 25.7039 25.9025 26.4102 25.3497 26.9337L23.6446 28.5486C23.0941 29.0699 22.4152 29.4358 21.6772 29.6091C20.9392 29.7823 20.1684 29.7567 19.4434 29.5349C15.8709 28.4412 12.5623 25.1954 9.47315 19.8434C6.37715 14.4834 5.20801 9.9623 6.02286 6.26858C6.18721 5.5243 6.54708 4.83731 7.06537 4.27844C7.58367 3.71957 8.24163 3.30903 8.97144 3.08915Z" fill="#13287E"/>
</svg>
