<svg width="130" height="26" viewBox="0 0 130 26" fill="none" xmlns="http://www.w3.org/2000/svg">
<path d="M116.049 2.92705C116.348 2.00574 117.652 2.00574 117.951 2.92705L119.694 8.29179C119.828 8.70382 120.212 8.98278 120.645 8.98278H126.286C127.255 8.98278 127.658 10.2224 126.874 10.7918L122.31 14.1074C121.96 14.362 121.813 14.8134 121.947 15.2254L123.69 20.5902C123.99 21.5115 122.935 22.2776 122.151 21.7082L117.588 18.3926C117.237 18.138 116.763 18.138 116.412 18.3926L111.849 21.7082C111.065 22.2776 110.01 21.5115 110.31 20.5902L112.053 15.2254C112.187 14.8134 112.04 14.362 111.69 14.1074L107.126 10.7918C106.342 10.2224 106.745 8.98278 107.714 8.98278H113.355C113.788 8.98278 114.172 8.70382 114.306 8.2918L116.049 2.92705Z" fill="white"/>
<path d="M90.0489 2.92705C90.3483 2.00574 91.6517 2.00574 91.9511 2.92705L93.6942 8.29179C93.828 8.70382 94.212 8.98278 94.6452 8.98278H100.286C101.255 8.98278 101.658 10.2224 100.874 10.7918L96.3103 14.1074C95.9598 14.362 95.8132 14.8134 95.947 15.2254L97.6902 20.5902C97.9895 21.5115 96.935 22.2776 96.1513 21.7082L91.5878 18.3926C91.2373 18.138 90.7627 18.138 90.4122 18.3926L85.8487 21.7082C85.065 22.2776 84.0105 21.5115 84.3098 20.5902L86.053 15.2254C86.1868 14.8134 86.0402 14.362 85.6897 14.1074L81.1262 10.7918C80.3425 10.2224 80.7452 8.98278 81.7139 8.98278H87.3548C87.788 8.98278 88.172 8.70382 88.3058 8.2918L90.0489 2.92705Z" fill="white"/>
<path d="M64.0489 2.92705C64.3483 2.00574 65.6517 2.00574 65.9511 2.92705L67.6942 8.29179C67.828 8.70382 68.212 8.98278 68.6452 8.98278H74.2861C75.2548 8.98278 75.6576 10.2224 74.8738 10.7918L70.3103 14.1074C69.9598 14.362 69.8132 14.8134 69.947 15.2254L71.6902 20.5902C71.9895 21.5115 70.935 22.2776 70.1513 21.7082L65.5878 18.3926C65.2373 18.138 64.7627 18.138 64.4122 18.3926L59.8487 21.7082C59.065 22.2776 58.0105 21.5115 58.3098 20.5902L60.053 15.2254C60.1868 14.8134 60.0402 14.362 59.6897 14.1074L55.1262 10.7918C54.3425 10.2224 54.7452 8.98278 55.7139 8.98278H61.3548C61.788 8.98278 62.172 8.70382 62.3058 8.2918L64.0489 2.92705Z" fill="white"/>
<path d="M38.0489 2.92705C38.3483 2.00574 39.6517 2.00574 39.9511 2.92705L41.6942 8.29179C41.828 8.70382 42.212 8.98278 42.6452 8.98278H48.2861C49.2548 8.98278 49.6576 10.2224 48.8738 10.7918L44.3103 14.1074C43.9598 14.362 43.8132 14.8134 43.947 15.2254L45.6902 20.5902C45.9895 21.5115 44.935 22.2776 44.1513 21.7082L39.5878 18.3926C39.2373 18.138 38.7627 18.138 38.4122 18.3926L33.8487 21.7082C33.065 22.2776 32.0105 21.5115 32.3098 20.5902L34.053 15.2254C34.1868 14.8134 34.0402 14.362 33.6897 14.1074L29.1262 10.7918C28.3425 10.2224 28.7452 8.98278 29.7139 8.98278H35.3548C35.788 8.98278 36.172 8.70382 36.3058 8.2918L38.0489 2.92705Z" fill="white"/>
<path d="M12.0489 2.92705C12.3483 2.00574 13.6517 2.00574 13.9511 2.92705L15.6942 8.29179C15.828 8.70382 16.212 8.98278 16.6452 8.98278H22.2861C23.2548 8.98278 23.6576 10.2224 22.8738 10.7918L18.3103 14.1074C17.9598 14.362 17.8132 14.8134 17.947 15.2254L19.6902 20.5902C19.9895 21.5115 18.935 22.2776 18.1513 21.7082L13.5878 18.3926C13.2373 18.138 12.7627 18.138 12.4122 18.3926L7.84869 21.7082C7.06498 22.2776 6.0105 21.5115 6.30985 20.5902L8.05296 15.2254C8.18683 14.8134 8.04018 14.362 7.68969 14.1074L3.12616 10.7918C2.34245 10.2224 2.74523 8.98278 3.71395 8.98278H9.35477C9.788 8.98278 10.172 8.70382 10.3058 8.2918L12.0489 2.92705Z" fill="white"/>
</svg>
