<svg width="41" height="40" viewBox="0 0 41 40" fill="none" xmlns="http://www.w3.org/2000/svg">
<path d="M20.8333 3.75C20.0533 3.75 19.2733 4.01625 18.6083 4.4925L16.5333 5.9375L14.1533 6.25H14.1158L14.0758 6.2875C13.2932 6.46368 12.5766 6.8584 12.0095 7.42576C11.4424 7.99312 11.0479 8.70981 10.8721 9.4925L10.8346 9.53V9.57L10.5221 11.9925L9.07706 13.8675L9.03706 13.905V13.945C8.16456 15.3425 8.12456 17.145 9.07706 18.4762L10.5583 20.55L10.9508 22.6975L6.92581 28.8313L5.63831 30.7437H11.6146L13.0596 34.1038L13.9596 36.2537L15.2471 34.3L19.1946 28.3625C20.2521 28.8 21.4521 28.8375 22.4746 28.3625L26.4208 34.3L27.7083 36.25L28.6083 34.1L30.0521 30.7425H36.0283L34.7408 28.8275L30.8333 22.8913L31.1458 20.5475L32.5908 18.4775L32.6308 18.44V18.4025C33.5033 17.0025 33.5433 15.2425 32.5908 13.9087L31.1458 11.8375L30.6771 9.4925H30.7146C30.7146 9.46125 30.6808 9.4425 30.6771 9.41375C30.4521 7.78 29.1558 6.45125 27.5146 6.25125H27.4746L25.1308 5.93875L23.0596 4.49375C22.4131 4.02 21.6347 3.75998 20.8333 3.75ZM20.8333 6.2875C21.1208 6.2875 21.4058 6.375 21.6146 6.525L23.8396 8.125L24.1146 8.32L24.4271 8.36L27.1621 8.75H27.1996C27.7596 8.8125 28.1546 9.20625 28.2158 9.76625V9.84375L28.7246 12.6188L28.7621 12.89L28.9583 13.125L30.5583 15.35C30.8583 15.7687 30.8958 16.4675 30.5208 17.07L28.9583 19.2575L28.7633 19.5325L28.7233 19.845L28.3333 22.5775V22.615C28.3139 22.8107 28.2469 22.9986 28.1383 23.1625L28.0596 23.2025V23.2425C27.8733 23.4648 27.607 23.6049 27.3183 23.6325H27.2408L24.3908 24.1413L24.0783 24.1788L23.8408 24.375L21.6158 25.975C21.1996 26.275 20.4608 26.3125 19.8583 25.9375L17.8258 24.375L17.5908 24.18L17.2408 24.14L14.5046 23.75H14.4646C14.2877 23.7356 14.117 23.6781 13.9673 23.5827C13.8176 23.4873 13.6936 23.3568 13.6058 23.2025C13.522 23.0586 13.4684 22.8991 13.4483 22.7337V22.6562L12.9408 19.8062L12.9008 19.4938L12.7058 19.2562L11.1058 17.0312C10.8058 16.615 10.7683 15.8763 11.1433 15.2738L12.7058 13.2413L12.9008 13.0062L12.9383 12.6562L13.2921 10.0375C13.2946 10.02 13.3246 10.0188 13.3296 10C13.408 9.69933 13.5651 9.425 13.7848 9.20528C14.0046 8.98557 14.2789 8.82841 14.5796 8.75C14.5983 8.745 14.5996 8.715 14.6171 8.7125L17.2358 8.36L17.5483 8.32L17.8233 8.125L20.0483 6.525C20.2571 6.375 20.5433 6.2875 20.8296 6.2875H20.8333ZM29.4658 25.3125L31.3808 28.2425H28.3708L28.0583 29.0238L27.2008 31.015L24.5446 26.9525L25.1296 26.5225L27.5896 26.0912V26.1287C27.6208 26.1287 27.6396 26.095 27.6683 26.0912C28.3257 25.9959 28.9455 25.7262 29.4633 25.31L29.4658 25.3125ZM12.2008 25.35C12.7346 25.8275 13.4096 26.16 14.1533 26.25H14.1908L16.5758 26.5625L17.1221 26.9925L14.4671 31.015L13.6083 29.0238L13.2958 28.2413H10.2833L12.1983 25.35H12.2008Z" fill="#002561"/>
</svg>
