<svg width="28" height="28" viewBox="0 0 28 28" fill="none" xmlns="http://www.w3.org/2000/svg">
<path d="M14 23.3333C11.5246 23.3333 9.15067 22.35 7.40034 20.5996C5.65 18.8493 4.66667 16.4753 4.66667 14C4.66667 11.5246 5.65 9.15066 7.40034 7.40032C9.15067 5.64998 11.5246 4.66665 14 4.66665C16.4754 4.66665 18.8493 5.64998 20.5997 7.40032C22.35 9.15066 23.3333 11.5246 23.3333 14C23.3333 16.4753 22.35 18.8493 20.5997 20.5996C18.8493 22.35 16.4754 23.3333 14 23.3333ZM14 2.33331C12.4679 2.33331 10.9508 2.63508 9.53536 3.22139C8.11989 3.80769 6.83377 4.66705 5.75042 5.7504C3.5625 7.93832 2.33333 10.9058 2.33333 14C2.33333 17.0942 3.5625 20.0616 5.75042 22.2496C6.83377 23.3329 8.11989 24.1923 9.53536 24.7786C10.9508 25.3649 12.4679 25.6666 14 25.6666C17.0942 25.6666 20.0617 24.4375 22.2496 22.2496C24.4375 20.0616 25.6667 17.0942 25.6667 14C25.6667 12.4679 25.3649 10.9508 24.7786 9.53534C24.1923 8.11987 23.3329 6.83375 22.2496 5.7504C21.1662 4.66705 19.8801 3.80769 18.4646 3.22139C17.0492 2.63508 15.5321 2.33331 14 2.33331ZM14 8.16665C12.4529 8.16665 10.9692 8.78123 9.87521 9.87519C8.78125 10.9692 8.16667 12.4529 8.16667 14C8.16667 15.5471 8.78125 17.0308 9.87521 18.1248C10.9692 19.2187 12.4529 19.8333 14 19.8333C15.5471 19.8333 17.0308 19.2187 18.1248 18.1248C19.2188 17.0308 19.8333 15.5471 19.8333 14C19.8333 12.4529 19.2188 10.9692 18.1248 9.87519C17.0308 8.78123 15.5471 8.16665 14 8.16665Z" fill="#13287E"/>
</svg>
