<svg width="85" height="85" viewBox="0 0 85 85" fill="none" xmlns="http://www.w3.org/2000/svg">
<g opacity="0.7" clip-path="url(#clip0_1_253)">
<path d="M55.25 63.0417C54.8779 63.3207 54.4545 63.5238 54.004 63.6392C53.5535 63.7546 53.0846 63.7802 52.6242 63.7144C52.1637 63.6486 51.7208 63.4928 51.3206 63.2558C50.9204 63.0189 50.5707 62.7054 50.2917 62.3333C50.0126 61.9613 49.8096 61.5379 49.6942 61.0873C49.5787 60.6368 49.5532 60.1679 49.619 59.7075C49.6847 59.247 49.8405 58.8041 50.0775 58.4039C50.3145 58.0037 50.6279 57.6541 51 57.375C56.5392 53.2206 59.7125 49.1796 61.5294 45.6521C59.0348 46.2942 56.402 46.1433 53.9971 45.2202C51.5922 44.297 49.5347 42.6476 48.1104 40.5012C46.6862 38.3548 45.966 35.818 46.05 33.2434C46.134 30.6688 47.018 28.1843 48.5791 26.1353C50.1403 24.0863 52.301 22.5745 54.7609 21.8101C57.2209 21.0457 59.8579 21.0667 62.3053 21.8701C64.7528 22.6735 66.8892 24.2194 68.4176 26.293C69.9459 28.3666 70.7903 30.8648 70.8334 33.4404C71.2872 37.7898 70.6695 42.1842 69.0342 46.24C66.9198 51.5737 62.7867 57.3892 55.25 63.0417ZM23.375 63.0417C23.0029 63.3207 22.5795 63.5238 22.129 63.6392C21.6784 63.7546 21.2096 63.7802 20.7492 63.7144C20.2887 63.6486 19.8458 63.4928 19.4456 63.2558C19.0454 63.0189 18.6958 62.7054 18.4167 62.3333C18.1376 61.9613 17.9346 61.5379 17.8192 61.0873C17.7037 60.6368 17.6782 60.1679 17.7439 59.7075C17.8097 59.247 17.9655 58.8041 18.2025 58.4039C18.4395 58.0037 18.7529 57.6541 19.125 57.375C24.6642 53.2206 27.8375 49.1796 29.6544 45.6521C27.1598 46.2942 24.527 46.1433 22.1221 45.2202C19.7172 44.297 17.6597 42.6476 16.2354 40.5012C14.8112 38.3548 14.091 35.818 14.175 33.2434C14.259 30.6688 15.143 28.1843 16.7042 26.1353C18.2653 24.0863 20.426 22.5745 22.8859 21.8101C25.3459 21.0457 27.9829 21.0667 30.4303 21.8701C32.8778 22.6735 35.0142 24.2194 36.5426 26.293C38.0709 28.3666 38.9153 30.8648 38.9584 33.4404C39.4122 37.7898 38.7945 42.1842 37.1592 46.24C35.0413 51.5737 30.9117 57.3892 23.375 63.0417Z" fill="white"/>
</g>
<defs>
<clipPath id="clip0_1_253">
<rect width="85" height="85" fill="white" transform="matrix(-1 0 0 -1 85 85)"/>
</clipPath>
</defs>
</svg>
