<svg width="17" height="17" viewBox="0 0 17 17" fill="none" xmlns="http://www.w3.org/2000/svg">
<g clip-path="url(#clip0_1_241)">
<path fill-rule="evenodd" clip-rule="evenodd" d="M9.00079 11.1257C8.86796 11.2585 8.68782 11.3331 8.5 11.3331C8.31218 11.3331 8.13204 11.2585 7.99921 11.1257L3.99217 7.11871C3.92451 7.05337 3.87055 6.97521 3.83343 6.88879C3.79631 6.80237 3.77676 6.70942 3.77595 6.61537C3.77513 6.52132 3.79305 6.42804 3.82867 6.34099C3.86428 6.25394 3.91688 6.17485 3.98339 6.10834C4.04989 6.04184 4.12898 5.98924 4.21603 5.95363C4.30308 5.91801 4.39636 5.90009 4.49041 5.90091C4.58446 5.90172 4.67741 5.92126 4.76383 5.95839C4.85025 5.99551 4.92841 6.04947 4.99375 6.11712L8.5 9.62337L12.0063 6.11712C12.1398 5.9881 12.3188 5.9167 12.5045 5.91831C12.6902 5.91993 12.8679 5.99442 12.9992 6.12575C13.1305 6.25708 13.205 6.43474 13.2066 6.62047C13.2083 6.80619 13.1369 6.98512 13.0078 7.11871L9.00079 11.1257Z" fill="white"/>
</g>
<defs>
<clipPath id="clip0_1_241">
<rect width="17" height="17" fill="white"/>
</clipPath>
</defs>
</svg>
