<svg width="28" height="28" viewBox="0 0 28 28" fill="none" xmlns="http://www.w3.org/2000/svg">
<path d="M8.09666 5.83328C8.09635 6.45212 7.85022 7.04549 7.41242 7.48285C6.97461 7.92022 6.381 8.16576 5.76216 8.16545C5.14332 8.16514 4.54995 7.91901 4.11259 7.4812C3.67522 7.0434 3.42968 6.44978 3.42999 5.83095C3.4303 5.21211 3.67643 4.61874 4.11424 4.18137C4.55204 3.74401 5.14565 3.49847 5.76449 3.49878C6.38333 3.49909 6.9767 3.74522 7.41407 4.18302C7.85143 4.62083 8.09697 5.21444 8.09666 5.83328ZM8.16666 9.89328H3.49999V24.4999H8.16666V9.89328ZM15.54 9.89328H10.8967V24.4999H15.4933V16.8349C15.4933 12.5649 21.0583 12.1683 21.0583 16.8349V24.4999H25.6667V15.2483C25.6667 8.04995 17.43 8.31828 15.4933 11.8533L15.54 9.89328Z" fill="white"/>
</svg>
