<svg width="28" height="28" viewBox="0 0 28 28" fill="none" xmlns="http://www.w3.org/2000/svg">
<path d="M25.914 6.59858C25.0237 6.99245 24.0796 7.25119 23.1128 7.36625C24.1314 6.75624 24.8935 5.79678 25.2572 4.66658C24.3005 5.23591 23.2517 5.63491 22.1597 5.85075C21.4254 5.06509 20.4521 4.54404 19.3911 4.3686C18.3301 4.19316 17.2409 4.37315 16.2928 4.88061C15.3447 5.38807 14.5908 6.19455 14.1483 7.17467C13.7058 8.1548 13.5995 9.25366 13.846 10.3004C11.9058 10.2033 10.0076 9.69926 8.27486 8.82092C6.54209 7.94258 5.01344 6.70961 3.78816 5.20208C3.3545 5.94694 3.12661 6.79368 3.12783 7.65558C3.12783 9.34725 3.98999 10.8417 5.29783 11.7167C4.52318 11.6923 3.76558 11.4831 3.08816 11.1066V11.1661C3.08812 12.2929 3.47787 13.3851 4.19128 14.2574C4.90469 15.1296 5.89786 15.7283 7.00233 15.9517C6.28324 16.1468 5.52917 16.1756 4.79733 16.0357C5.10874 17.0057 5.71574 17.854 6.53332 18.4617C7.35091 19.0695 8.33811 19.4062 9.35666 19.4249C8.34441 20.2199 7.18536 20.8076 5.9458 21.1543C4.70625 21.5011 3.4105 21.6 2.13266 21.4456C4.363 22.8799 6.95928 23.6413 9.61099 23.6389C18.5873 23.6389 23.4943 16.2037 23.4943 9.75558C23.4943 9.54558 23.4897 9.33325 23.4803 9.12441C24.4351 8.43417 25.2592 7.57807 25.914 6.59858Z" fill="white"/>
</svg>
