<svg width="33" height="32" viewBox="0 0 33 32" fill="none" xmlns="http://www.w3.org/2000/svg">
<path d="M24.7266 15.4933C24.6632 15.3296 24.568 15.1801 24.4466 15.0533L17.78 8.38663C17.6557 8.26231 17.5081 8.1637 17.3456 8.09642C17.1832 8.02914 17.0091 7.99451 16.8333 7.99451C16.4782 7.99451 16.1377 8.13556 15.8866 8.38663C15.7623 8.51095 15.6637 8.65853 15.5964 8.82096C15.5292 8.98339 15.4945 9.15748 15.4945 9.3333C15.4945 9.68836 15.6356 10.0289 15.8866 10.28L20.2866 14.6666H10.1666C9.81302 14.6666 9.47389 14.8071 9.22384 15.0572C8.97379 15.3072 8.83331 15.6463 8.83331 16C8.83331 16.3536 8.97379 16.6927 9.22384 16.9428C9.47389 17.1928 9.81302 17.3333 10.1666 17.3333H20.2866L15.8866 21.72C15.7617 21.8439 15.6625 21.9914 15.5948 22.1539C15.5271 22.3163 15.4922 22.4906 15.4922 22.6666C15.4922 22.8426 15.5271 23.0169 15.5948 23.1794C15.6625 23.3419 15.7617 23.4893 15.8866 23.6133C16.0106 23.7383 16.1581 23.8375 16.3205 23.9052C16.483 23.9728 16.6573 24.0077 16.8333 24.0077C17.0093 24.0077 17.1836 23.9728 17.3461 23.9052C17.5086 23.8375 17.656 23.7383 17.78 23.6133L24.4466 16.9466C24.568 16.8198 24.6632 16.6703 24.7266 16.5066C24.86 16.182 24.86 15.8179 24.7266 15.4933Z" fill="#0071BD"/>
</svg>
