<svg width="28" height="28" viewBox="0 0 28 28" fill="none" xmlns="http://www.w3.org/2000/svg">
  <path d="M25.914 6.59858C25.0237 6.99245 24.0796 7.25119 23.1129 7.36625C24.1314 6.75624 24.8935 5.79678 25.2572 4.66658C24.3005 5.23591 23.2517 5.63491 22.1597 5.85075C21.4254 5.06509 20.4521 4.54404 19.3911 4.3686C18.3302 4.19316 17.241 4.37315 16.2928 4.88061C15.3447 5.38807 14.5908 6.19455 14.1483 7.17467C13.7058 8.1548 13.5996 9.25366 13.846 10.3004C11.9058 10.2033 10.0077 9.69926 8.27489 8.82092C6.54212 7.94258 5.01347 6.70961 3.78819 5.20208C3.35453 5.94694 3.12664 6.79368 3.12786 7.65558C3.12786 9.34725 3.99002 10.8417 5.29786 11.7167C4.52321 11.6923 3.76561 11.4831 3.08819 11.1066V11.1661C3.08816 12.2929 3.4779 13.3851 4.19131 14.2574C4.90473 15.1296 5.89789 15.7283 7.00236 15.9517C6.28327 16.1468 5.5292 16.1756 4.79736 16.0357C5.10877 17.0057 5.71577 17.854 6.53335 18.4617C7.35094 19.0695 8.33814 19.4062 9.35669 19.4249C8.34444 20.2199 7.18539 20.8076 5.94583 21.1543C4.70628 21.5011 3.41053 21.6 2.13269 21.4456C4.36303 22.8799 6.95931 23.6413 9.61102 23.6389C18.5874 23.6389 23.4944 16.2037 23.4944 9.75558C23.4944 9.54558 23.4897 9.33325 23.4804 9.12441C24.4352 8.43417 25.2593 7.57807 25.914 6.59858Z" fill="#677279"/>
</svg>