<svg width="28" height="28" viewBox="0 0 28 28" fill="none" xmlns="http://www.w3.org/2000/svg">
  <path d="M14.2846 4.66675C14.9076 4.67025 16.4663 4.68541 18.123 4.75191L18.711 4.77758C20.3781 4.85575 22.0441 4.99108 22.8713 5.22091C23.9738 5.53125 24.8395 6.43425 25.1323 7.57991C25.599 9.39991 25.6573 12.9489 25.6643 13.8087L25.6655 13.9861V14.1891C25.6573 15.0489 25.599 18.5991 25.1323 20.4179C24.836 21.5671 23.9691 22.4712 22.8713 22.7769C22.0441 23.0067 20.3781 23.1421 18.711 23.2202L18.123 23.2471C16.4663 23.3124 14.9076 23.3287 14.2846 23.3311L14.0105 23.3322H13.713C12.3946 23.3241 6.88098 23.2646 5.12631 22.7769C4.02498 22.4666 3.15815 21.5636 2.86531 20.4179C2.39865 18.5979 2.34031 15.0489 2.33331 14.1891V13.8087C2.34031 12.9489 2.39865 9.39875 2.86531 7.57991C3.16165 6.43075 4.02848 5.52658 5.12748 5.22208C6.88098 4.73325 12.3958 4.67375 13.7141 4.66675H14.2846ZM11.6655 9.91675V18.0834L18.6655 14.0001L11.6655 9.91675Z" fill="#677279"/>
</svg>